<?xml version="1.0" encoding="UTF-8" standalone="no"?>
<!DOCTYPE svg PUBLIC "-//W3C//DTD SVG 1.1//EN"
 "http://www.w3.org/Graphics/SVG/1.1/DTD/svg11.dtd">
<!-- Generated by graphviz version 15.0.0 (20260523.1842)
 -->
<!-- Title: store_and_mmap Pages: 1 -->
<svg width="493pt" height="663pt"
 viewBox="0.00 0.00 493.00 663.00" xmlns="http://www.w3.org/2000/svg" xmlns:xlink="http://www.w3.org/1999/xlink">
<g id="graph0" class="graph" transform="scale(1 1) rotate(0) translate(14.4 648.76)">
<title>store_and_mmap</title>
<!-- req -->
<g id="node1" class="node">
<title>req</title>
<path fill="#0f131c" stroke="#283041" stroke-width="1.3" d="M413.33,-634.36C413.33,-634.36 253.88,-634.36 253.88,-634.36 247.88,-634.36 241.88,-628.36 241.88,-622.36 241.88,-622.36 241.88,-594.44 241.88,-594.44 241.88,-588.44 247.88,-582.44 253.88,-582.44 253.88,-582.44 413.33,-582.44 413.33,-582.44 419.33,-582.44 425.33,-588.44 425.33,-594.44 425.33,-594.44 425.33,-622.36 425.33,-622.36 425.33,-628.36 419.33,-634.36 413.33,-634.36"/>
<text xml:space="preserve" text-anchor="start" x="263.48" y="-609.1" font-family="Helvetica,sans-Serif" font-weight="bold" font-size="14.00" fill="#f4f6fb">incoming stack frame</text>
<text xml:space="preserve" text-anchor="start" x="269.85" y="-597" font-family="Menlo" font-size="12.00" fill="#8a93a6">app.min.js:1:5114</text>
</g>
<!-- local -->
<g id="node2" class="node">
<title>local</title>
<path fill="#151a24" stroke="#283041" stroke-width="1.3" d="M409.58,-549.44C409.58,-549.44 257.62,-549.44 257.62,-549.44 251.63,-549.44 245.63,-543.44 245.63,-537.44 245.63,-537.44 245.63,-509.52 245.63,-509.52 245.63,-503.52 251.63,-497.52 257.62,-497.52 257.62,-497.52 409.58,-497.52 409.58,-497.52 415.58,-497.52 421.58,-503.52 421.58,-509.52 421.58,-509.52 421.58,-537.44 421.58,-537.44 421.58,-543.44 415.58,-549.44 409.58,-549.44"/>
<text xml:space="preserve" text-anchor="start" x="281.1" y="-524.18" font-family="Helvetica,sans-Serif" font-weight="bold" font-size="14.00" fill="#f4f6fb">tier 1 · local disk</text>
<text xml:space="preserve" text-anchor="start" x="267.23" y="-512.08" font-family="Helvetica,sans-Serif" font-size="12.00" fill="#8a93a6">is the .tw file on this box?</text>
</g>
<!-- req&#45;&gt;local -->
<g id="edge1" class="edge">
<title>req&#45;&gt;local</title>
<path fill="none" stroke="#5a6374" stroke-width="1.4" d="M333.6,-582.07C333.6,-575.22 333.6,-567.68 333.6,-560.37"/>
<polygon fill="#5a6374" stroke="#5a6374" stroke-width="1.4" points="336.58,-560.56 333.6,-552.06 330.63,-560.56 336.58,-560.56"/>
</g>
<!-- obj -->
<g id="node3" class="node">
<title>obj</title>
<path fill="#151a24" stroke="#283041" stroke-width="1.3" d="M342.08,-453.52C342.08,-453.52 187.13,-453.52 187.13,-453.52 181.13,-453.52 175.13,-447.52 175.13,-441.52 175.13,-441.52 175.13,-413.6 175.13,-413.6 175.13,-407.6 181.13,-401.6 187.13,-401.6 187.13,-401.6 342.08,-401.6 342.08,-401.6 348.08,-401.6 354.08,-407.6 354.08,-413.6 354.08,-413.6 354.08,-441.52 354.08,-441.52 354.08,-447.52 348.08,-453.52 342.08,-453.52"/>
<text xml:space="preserve" text-anchor="start" x="196.73" y="-428.26" font-family="Helvetica,sans-Serif" font-weight="bold" font-size="14.00" fill="#f4f6fb">tier 2 · object storage</text>
<text xml:space="preserve" text-anchor="start" x="203.48" y="-416.16" font-family="Helvetica,sans-Serif" font-size="12.00" fill="#8a93a6">is a prebuilt .tw stored?</text>
</g>
<!-- local&#45;&gt;obj -->
<g id="edge3" class="edge">
<title>local&#45;&gt;obj</title>
<path fill="none" stroke="#5a6374" stroke-width="1.4" d="M315.11,-497.31C307.28,-486.66 298.05,-474.09 289.63,-462.62"/>
<polygon fill="#5a6374" stroke="#5a6374" stroke-width="1.4" points="292.07,-460.92 284.64,-455.83 287.27,-464.44 292.07,-460.92"/>
<text xml:space="preserve" text-anchor="middle" x="317.11" y="-471.07" font-family="Helvetica,sans-Serif" font-size="11.00" fill="#8a93a6"> &#160;miss</text>
</g>
<!-- mmap -->
<g id="node7" class="node">
<title>mmap</title>
<path fill="#0c1714" stroke="#22e0a8" stroke-width="1.3" d="M378.58,-136.84C378.58,-136.84 166.62,-136.84 166.62,-136.84 160.62,-136.84 154.62,-130.84 154.62,-124.84 154.62,-124.84 154.62,-96.92 154.62,-96.92 154.62,-90.92 160.62,-84.92 166.62,-84.92 166.62,-84.92 378.58,-84.92 378.58,-84.92 384.58,-84.92 390.58,-90.92 390.58,-96.92 390.58,-96.92 390.58,-124.84 390.58,-124.84 390.58,-130.84 384.58,-136.84 378.58,-136.84"/>
<text xml:space="preserve" text-anchor="start" x="176.23" y="-111.58" font-family="Helvetica,sans-Serif" font-weight="bold" font-size="14.00" fill="#f4f6fb">mmap the .tw, search in place</text>
<text xml:space="preserve" text-anchor="start" x="176.6" y="-99.48" font-family="Helvetica,sans-Serif" font-size="12.00" fill="#7ff0c8">fast: served from the OS page cache</text>
</g>
<!-- local&#45;&gt;mmap -->
<g id="edge2" class="edge">
<title>local&#45;&gt;mmap</title>
<path fill="none" stroke="#22e0a8" stroke-width="1.4" d="M362.98,-497.22C379.8,-479.86 397.6,-455.2 397.6,-428.56 397.6,-428.56 397.6,-428.56 397.6,-194.8 397.6,-171.99 382.97,-155.08 363.72,-142.71"/>
<polygon fill="#22e0a8" stroke="#22e0a8" stroke-width="1.4" points="365.24,-140.16 356.41,-138.41 362.23,-145.28 365.24,-140.16"/>
<text xml:space="preserve" text-anchor="middle" x="430.98" y="-327.19" font-family="Helvetica,sans-Serif" font-size="11.00" fill="#7ff0c8"> &#160;hit (hot path)</text>
</g>
<!-- rebuild -->
<g id="node4" class="node">
<title>rebuild</title>
<path fill="#1b1115" stroke="#ff5a5f" stroke-width="1.3" d="M215.32,-357.6C215.32,-357.6 19.88,-357.6 19.88,-357.6 13.87,-357.6 7.88,-351.6 7.88,-345.6 7.88,-345.6 7.88,-317.68 7.88,-317.68 7.88,-311.68 13.88,-305.68 19.88,-305.68 19.88,-305.68 215.32,-305.68 215.32,-305.68 221.32,-305.68 227.32,-311.68 227.32,-317.68 227.32,-317.68 227.32,-345.6 227.32,-345.6 227.32,-351.6 221.32,-357.6 215.32,-357.6"/>
<text xml:space="preserve" text-anchor="start" x="56.1" y="-332.34" font-family="Helvetica,sans-Serif" font-weight="bold" font-size="14.00" fill="#f4f6fb">tier 3 · build it once</text>
<text xml:space="preserve" text-anchor="start" x="29.47" y="-320.24" font-family="Helvetica,sans-Serif" font-size="12.00" fill="#ff9a9d">first crash of a brand&#45;new release</text>
</g>
<!-- obj&#45;&gt;rebuild -->
<g id="edge6" class="edge">
<title>obj&#45;&gt;rebuild</title>
<path fill="none" stroke="#5a6374" stroke-width="1.4" d="M178.37,-400.98C169.58,-396.58 161.12,-391.48 153.6,-385.6 147.01,-380.45 141.19,-373.75 136.24,-366.86"/>
<polygon fill="#5a6374" stroke="#5a6374" stroke-width="1.4" points="138.81,-365.34 131.64,-359.9 133.85,-368.63 138.81,-365.34"/>
<text xml:space="preserve" text-anchor="middle" x="194.1" y="-375.15" font-family="Helvetica,sans-Serif" font-size="11.00" fill="#8a93a6"> &#160;miss (cold&#45;cold)</text>
</g>
<!-- fetch -->
<g id="node5" class="node">
<title>fetch</title>
<path fill="#08161c" stroke="#00d4ff" stroke-width="1.3" d="M367.83,-289.68C367.83,-289.68 151.38,-289.68 151.38,-289.68 145.38,-289.68 139.38,-283.68 139.38,-277.68 139.38,-277.68 139.38,-249.76 139.38,-249.76 139.38,-243.76 145.38,-237.76 151.38,-237.76 151.38,-237.76 367.83,-237.76 367.83,-237.76 373.83,-237.76 379.83,-243.76 379.83,-249.76 379.83,-249.76 379.83,-277.68 379.83,-277.68 379.83,-283.68 373.83,-289.68 367.83,-289.68"/>
<text xml:space="preserve" text-anchor="start" x="160.98" y="-264.42" font-family="Helvetica,sans-Serif" font-weight="bold" font-size="14.00" fill="#f4f6fb">download the .tw, write to disk</text>
<text xml:space="preserve" text-anchor="start" x="220.98" y="-252.32" font-family="Helvetica,sans-Serif" font-size="12.00" fill="#8fe6ff">still no parsing</text>
</g>
<!-- obj&#45;&gt;fetch -->
<g id="edge4" class="edge">
<title>obj&#45;&gt;fetch</title>
<path fill="none" stroke="#5a6374" stroke-width="1.4" d="M263.82,-401.27C262.98,-374.15 261.64,-330.88 260.7,-300.33"/>
<polygon fill="#5a6374" stroke="#5a6374" stroke-width="1.4" points="263.69,-300.62 260.45,-292.21 257.74,-300.8 263.69,-300.62"/>
<text xml:space="preserve" text-anchor="middle" x="271.86" y="-375.15" font-family="Helvetica,sans-Serif" font-size="11.00" fill="#8a93a6"> &#160;hit</text>
</g>
<!-- back -->
<g id="node6" class="node">
<title>back</title>
<path fill="#08161c" stroke="#00d4ff" stroke-width="1.3" d="M223.2,-221.76C223.2,-221.76 12,-221.76 12,-221.76 6,-221.76 0,-215.76 0,-209.76 0,-209.76 0,-181.84 0,-181.84 0,-175.84 6,-169.84 12,-169.84 12,-169.84 223.2,-169.84 223.2,-169.84 229.2,-169.84 235.2,-175.84 235.2,-181.84 235.2,-181.84 235.2,-209.76 235.2,-209.76 235.2,-215.76 229.2,-221.76 223.2,-221.76"/>
<text xml:space="preserve" text-anchor="start" x="21.6" y="-196.5" font-family="Helvetica,sans-Serif" font-weight="bold" font-size="14.00" fill="#f4f6fb">write the .tw to object storage</text>
<text xml:space="preserve" text-anchor="start" x="37.35" y="-184.4" font-family="Helvetica,sans-Serif" font-size="12.00" fill="#8fe6ff">every replica is warm after this</text>
</g>
<!-- rebuild&#45;&gt;back -->
<g id="edge7" class="edge">
<title>rebuild&#45;&gt;back</title>
<path fill="none" stroke="#5a6374" stroke-width="1.4" d="M117.6,-305.15C117.6,-284.59 117.6,-255.43 117.6,-232.54"/>
<polygon fill="#5a6374" stroke="#5a6374" stroke-width="1.4" points="120.58,-232.81 117.6,-224.31 114.63,-232.81 120.58,-232.81"/>
</g>
<!-- fetch&#45;&gt;mmap -->
<g id="edge5" class="edge">
<title>fetch&#45;&gt;mmap</title>
<path fill="none" stroke="#5a6374" stroke-width="1.4" d="M261.81,-237.13C263.92,-212.57 267.14,-175.25 269.51,-147.73"/>
<polygon fill="#5a6374" stroke="#5a6374" stroke-width="1.4" points="272.46,-148.18 270.22,-139.45 266.53,-147.67 272.46,-148.18"/>
</g>
<!-- back&#45;&gt;mmap -->
<g id="edge8" class="edge">
<title>back&#45;&gt;mmap</title>
<path fill="none" stroke="#5a6374" stroke-width="1.4" d="M165.37,-169.24C181.36,-160.69 199.33,-151.08 215.93,-142.2"/>
<polygon fill="#5a6374" stroke="#5a6374" stroke-width="1.4" points="217.03,-144.98 223.12,-138.35 214.22,-139.74 217.03,-144.98"/>
</g>
<!-- out -->
<g id="node8" class="node">
<title>out</title>
<path fill="#15121f" stroke="#7c5cff" stroke-width="1.3" d="M405.95,-51.92C405.95,-51.92 139.25,-51.92 139.25,-51.92 133.25,-51.92 127.25,-45.92 127.25,-39.92 127.25,-39.92 127.25,-12 127.25,-12 127.25,-6 133.25,0 139.25,0 139.25,0 405.95,0 405.95,0 411.95,0 417.95,-6 417.95,-12 417.95,-12 417.95,-39.92 417.95,-39.92 417.95,-45.92 411.95,-51.92 405.95,-51.92"/>
<text xml:space="preserve" text-anchor="start" x="224.23" y="-26.66" font-family="Helvetica,sans-Serif" font-weight="bold" font-size="14.00" fill="#f4f6fb">resolved frame</text>
<text xml:space="preserve" text-anchor="start" x="148.85" y="-14.56" font-family="Menlo" font-size="12.00" fill="#b9a7ff">checkout.js:48 · validateCheckout</text>
</g>
<!-- mmap&#45;&gt;out -->
<g id="edge9" class="edge">
<title>mmap&#45;&gt;out</title>
<path fill="none" stroke="#5a6374" stroke-width="1.4" d="M272.6,-84.55C272.6,-77.7 272.6,-70.16 272.6,-62.85"/>
<polygon fill="#5a6374" stroke="#5a6374" stroke-width="1.4" points="275.58,-63.04 272.6,-54.54 269.63,-63.04 275.58,-63.04"/>
</g>
</g>
</svg>
