<svg viewBox="0 0 16 16" fill="none" xmlns="http://www.w3.org/2000/svg">
  <rect width="16" height="16" fill="#F7DF1E"/>
  <path d="M4.5 12.5C4.5 11.2 5.3 10.7 6.5 10.7C7.3 10.7 7.8 11.1 8.1 11.7L7 12.4C6.9 12.1 6.7 11.9 6.4 11.9C6.1 11.9 5.9 12.1 5.9 12.5V14.5H4.5V12.5Z" fill="#323330"/>
  <path d="M9 14.3C9.4 14.7 10 15 10.7 15C11.8 15 12.5 14.3 12.5 13.3C12.5 12.3 11.9 11.9 10.9 11.5L10.5 11.3C10 11.1 9.8 10.9 9.8 10.6C9.8 10.3 10 10.1 10.4 10.1C10.7 10.1 10.9 10.2 11.1 10.6L12.1 9.9C11.7 9.2 11.1 8.9 10.4 8.9C9.3 8.9 8.5 9.6 8.5 10.6C8.5 11.5 9 12 9.9 12.4L10.3 12.6C10.8 12.8 11.1 13 11.1 13.4C11.1 13.7 10.8 13.9 10.4 13.9C9.9 13.9 9.5 13.6 9.3 13.2L8.2 13.9C8.5 14.5 9.2 15 10.1 15" fill="#323330"/>
</svg>
