<svg xmlns="http://www.w3.org/2000/svg" width="500" height="500" viewBox="0 0 500 500">
  <g fill="none" stroke="currentColor" stroke-linecap="round" stroke-width="31.25">
    <path d="M250 41.67c115.06 0 208.33 93.27 208.33 208.33c0 37.94-10.15 73.54-27.88 104.17M104.17 101.23A207.71 207.71 0 0 0 41.67 250c0 115.06 93.27 208.33 208.33 208.33c37.94 0 73.54-10.15 104.17-27.88"/>
    <path d="M104.17 250c0 30.98 9.67 59.71 26.15 83.33M250 104.17a145.83 145.83 0 1 1-62.5 277.63"/>
    <path d="M250 333.33a83.33 83.33 0 0 0 0-166.67"/>
  </g>
</svg>