<svg width="249" height="62" viewBox="0 0 249 62" fill="none" xmlns="http://www.w3.org/2000/svg">
<path d="M70.92 42V18.72H62.44V13.6H85.56V18.72H77.04V42H70.92ZM86.8275 42V20.56H92.5075L92.7075 26.8L92.2675 26.68C92.6142 24.52 93.2275 22.96 94.1075 22C94.9875 21.04 96.2008 20.56 97.7475 20.56H99.7075V25.52H97.7475C96.6275 25.52 95.7075 25.6667 94.9875 25.96C94.2675 26.2533 93.7208 26.72 93.3475 27.36C93.0008 28 92.8275 28.8667 92.8275 29.96V42H86.8275ZM108.813 42.48C106.599 42.48 104.786 41.9733 103.373 40.96C101.986 39.92 101.293 38.48 101.293 36.64C101.293 34.7467 101.879 33.2933 103.053 32.28C104.253 31.24 106.013 30.48 108.333 30L115.253 28.64C115.253 27.2533 114.933 26.2133 114.293 25.52C113.679 24.8 112.786 24.44 111.613 24.44C110.466 24.44 109.573 24.7067 108.933 25.24C108.293 25.7467 107.879 26.5067 107.693 27.52L101.653 27.24C102.053 24.8933 103.106 23.12 104.812 21.92C106.546 20.6933 108.813 20.08 111.613 20.08C114.813 20.08 117.213 20.84 118.813 22.36C120.439 23.88 121.253 26.1067 121.253 29.04V36.36C121.253 36.9733 121.346 37.3867 121.533 37.6C121.746 37.7867 122.053 37.88 122.453 37.88H123.053V42C122.866 42.0533 122.559 42.1067 122.133 42.16C121.733 42.2133 121.333 42.24 120.932 42.24C120.079 42.24 119.279 42.0933 118.533 41.8C117.813 41.5067 117.226 41.0133 116.773 40.32C116.319 39.6 116.093 38.5867 116.093 37.28L116.613 37.68C116.346 38.64 115.866 39.48 115.173 40.2C114.506 40.92 113.626 41.48 112.533 41.88C111.466 42.28 110.226 42.48 108.813 42.48ZM110.253 38.36C111.239 38.36 112.106 38.1733 112.853 37.8C113.599 37.4 114.186 36.8267 114.613 36.08C115.039 35.3333 115.253 34.4533 115.253 33.44V32.4L110.372 33.44C109.413 33.6267 108.679 33.9467 108.173 34.4C107.693 34.8267 107.453 35.3867 107.453 36.08C107.453 36.8 107.693 37.36 108.173 37.76C108.653 38.16 109.346 38.36 110.253 38.36ZM135.532 42.48C133.345 42.48 131.439 42.0267 129.812 41.12C128.185 40.1867 126.919 38.88 126.012 37.2C125.105 35.52 124.652 33.5467 124.652 31.28C124.652 29.0133 125.105 27.0533 126.012 25.4C126.919 23.72 128.185 22.4133 129.812 21.48C131.439 20.5467 133.345 20.08 135.532 20.08C137.425 20.08 139.119 20.4133 140.612 21.08C142.132 21.7467 143.359 22.7067 144.292 23.96C145.225 25.2133 145.799 26.72 146.012 28.48L139.812 28.76C139.625 27.4267 139.145 26.4267 138.372 25.76C137.625 25.0667 136.679 24.72 135.532 24.72C134.039 24.72 132.879 25.2933 132.052 26.44C131.225 27.5867 130.812 29.2 130.812 31.28C130.812 33.36 131.225 34.9867 132.052 36.16C132.879 37.3067 134.039 37.88 135.532 37.88C136.679 37.88 137.639 37.5333 138.412 36.84C139.185 36.12 139.652 35.04 139.812 33.6L146.012 33.84C145.825 35.6 145.265 37.1333 144.332 38.44C143.425 39.72 142.212 40.72 140.692 41.44C139.199 42.1333 137.479 42.48 135.532 42.48ZM158.968 42.48C156.781 42.48 154.874 42.0267 153.248 41.12C151.648 40.1867 150.394 38.88 149.488 37.2C148.608 35.52 148.168 33.5467 148.168 31.28C148.168 29.0133 148.608 27.0533 149.488 25.4C150.394 23.72 151.648 22.4133 153.248 21.48C154.848 20.5467 156.741 20.08 158.928 20.08C161.061 20.08 162.914 20.5467 164.488 21.48C166.061 22.4133 167.274 23.7467 168.128 25.48C169.008 27.2133 169.448 29.28 169.448 31.68V32.88H154.368C154.448 34.5867 154.901 35.8533 155.728 36.68C156.581 37.5067 157.701 37.92 159.088 37.92C160.101 37.92 160.941 37.7067 161.608 37.28C162.301 36.8533 162.794 36.2 163.088 35.32L169.128 35.68C168.568 37.8133 167.381 39.48 165.568 40.68C163.754 41.88 161.554 42.48 158.968 42.48ZM154.368 29.2H163.288C163.208 27.6267 162.768 26.4533 161.968 25.68C161.194 24.9067 160.181 24.52 158.928 24.52C157.674 24.52 156.634 24.9333 155.808 25.76C155.008 26.56 154.528 27.7067 154.368 29.2ZM176.934 42L170.574 20.56H176.614L180.294 35.08L184.254 20.56H189.134L193.094 35.08L196.814 20.56H202.854L196.494 42H190.654L186.694 28.6L182.734 42H176.934ZM211.508 42.48C209.294 42.48 207.481 41.9733 206.068 40.96C204.681 39.92 203.988 38.48 203.988 36.64C203.988 34.7467 204.574 33.2933 205.748 32.28C206.948 31.24 208.708 30.48 211.028 30L217.948 28.64C217.948 27.2533 217.628 26.2133 216.988 25.52C216.374 24.8 215.481 24.44 214.308 24.44C213.161 24.44 212.268 24.7067 211.628 25.24C210.988 25.7467 210.574 26.5067 210.388 27.52L204.348 27.24C204.748 24.8933 205.801 23.12 207.508 21.92C209.241 20.6933 211.508 20.08 214.308 20.08C217.508 20.08 219.908 20.84 221.508 22.36C223.134 23.88 223.948 26.1067 223.948 29.04V36.36C223.948 36.9733 224.041 37.3867 224.228 37.6C224.441 37.7867 224.748 37.88 225.148 37.88H225.748V42C225.561 42.0533 225.254 42.1067 224.828 42.16C224.428 42.2133 224.028 42.24 223.628 42.24C222.774 42.24 221.974 42.0933 221.228 41.8C220.508 41.5067 219.921 41.0133 219.468 40.32C219.014 39.6 218.788 38.5867 218.788 37.28L219.308 37.68C219.041 38.64 218.561 39.48 217.868 40.2C217.201 40.92 216.321 41.48 215.228 41.88C214.161 42.28 212.921 42.48 211.508 42.48ZM212.948 38.36C213.934 38.36 214.801 38.1733 215.548 37.8C216.294 37.4 216.881 36.8267 217.308 36.08C217.734 35.3333 217.948 34.4533 217.948 33.44V32.4L213.068 33.44C212.108 33.6267 211.374 33.9467 210.868 34.4C210.388 34.8267 210.148 35.3867 210.148 36.08C210.148 36.8 210.388 37.36 210.868 37.76C211.348 38.16 212.041 38.36 212.948 38.36ZM229.291 48V43.52H232.131C232.824 43.52 233.331 43.4133 233.651 43.2C233.997 43.0133 234.264 42.6667 234.451 42.16L234.891 40.92H233.251L225.731 20.56H231.851L236.771 35.32L241.371 20.56H247.491L239.251 44.04C238.771 45.4533 238.077 46.4667 237.171 47.08C236.264 47.6933 234.997 48 233.371 48H229.291Z" fill="white"/>
<path d="M31.0001 5.16663C45.2678 5.16663 56.8334 16.7322 56.8334 31C56.8334 35.7042 55.5754 40.1191 53.3769 43.9166M12.9168 12.5524C10.4596 14.9548 8.50808 17.8246 7.17709 20.9928C5.8461 24.161 5.16257 27.5635 5.16677 31C5.16677 45.2677 16.7324 56.8333 31.0001 56.8333C35.7044 56.8333 40.1193 55.5752 43.9168 53.3768" stroke="white" stroke-width="3.875" stroke-linecap="round"/>
<path d="M12.9167 31C12.9167 34.8414 14.1154 38.4038 16.1588 41.3333M31.0001 12.9166C33.7116 12.9178 36.3881 13.5287 38.8315 14.7042C41.2749 15.8796 43.4228 17.5895 45.116 19.7073C46.8093 21.8251 48.0046 24.2965 48.6136 26.9387C49.2225 29.5809 49.2295 32.3263 48.634 34.9715C48.0385 37.6168 46.8557 40.0943 45.1733 42.2207C43.4908 44.347 41.3517 46.0678 38.9142 47.2557C36.4768 48.4435 33.8034 49.0681 31.092 49.083C28.3806 49.098 25.7005 48.503 23.2501 47.3421" stroke="white" stroke-width="3.875" stroke-linecap="round"/>
<path d="M31 41.3333C33.7406 41.3333 36.3689 40.2446 38.3068 38.3067C40.2446 36.3689 41.3333 33.7405 41.3333 31C41.3333 28.2594 40.2446 25.6311 38.3068 23.6932C36.3689 21.7553 33.7406 20.6666 31 20.6666" stroke="white" stroke-width="3.875" stroke-linecap="round"/>
</svg>
