<?xml version="1.0" encoding="UTF-8" standalone="no"?>
<!DOCTYPE svg PUBLIC "-//W3C//DTD SVG 1.1//EN"
 "http://www.w3.org/Graphics/SVG/1.1/DTD/svg11.dtd">
<!-- Generated by graphviz version 15.1.0 (0)
 -->
<!-- Title: oncall_pieces Pages: 1 -->
<svg width="493pt" height="744pt"
 viewBox="0.00 0.00 493.00 744.00" xmlns="http://www.w3.org/2000/svg" xmlns:xlink="http://www.w3.org/1999/xlink">
<g id="graph0" class="graph" transform="scale(1 1) rotate(0) translate(14.4 729.68)">
<title>oncall_pieces</title>
<!-- rule -->
<g id="node1" class="node">
<title>rule</title>
<path fill="#0f131c" stroke="#283041" stroke-width="1.3" d="M331.67,-715.28C331.67,-715.28 32.36,-715.28 32.36,-715.28 26.36,-715.28 20.36,-709.28 20.36,-703.28 20.36,-703.28 20.36,-675.36 20.36,-675.36 20.36,-669.36 26.36,-663.36 32.36,-663.36 32.36,-663.36 331.67,-663.36 331.67,-663.36 337.67,-663.36 343.67,-669.36 343.67,-675.36 343.67,-675.36 343.67,-703.28 343.67,-703.28 343.67,-709.28 337.67,-715.28 331.67,-715.28"/>
<text xml:space="preserve" text-anchor="start" x="125.6" y="-690.72" font-family="Helvetica,sans-Serif" font-weight="bold" font-size="14.00" fill="#f4f6fb">an alert rule fires</text>
<text xml:space="preserve" text-anchor="start" x="41.96" y="-678.52" font-family="Helvetica,sans-Serif" font-size="12.00" fill="#8a93a6">error rate · latency · metric threshold · missing data</text>
</g>
<!-- channel -->
<g id="node2" class="node">
<title>channel</title>
<path fill="#151a24" stroke="#283041" stroke-width="1.3" d="M324.04,-632.36C324.04,-632.36 40,-632.36 40,-632.36 34,-632.36 28,-626.36 28,-620.36 28,-620.36 28,-592.44 28,-592.44 28,-586.44 34,-580.44 40,-580.44 40,-580.44 324.04,-580.44 324.04,-580.44 330.04,-580.44 336.04,-586.44 336.04,-592.44 336.04,-592.44 336.04,-620.36 336.04,-620.36 336.04,-626.36 330.04,-632.36 324.04,-632.36"/>
<text xml:space="preserve" text-anchor="start" x="119.38" y="-607.8" font-family="Helvetica,sans-Serif" font-weight="bold" font-size="14.00" fill="#f4f6fb">escalation channel</text>
<text xml:space="preserve" text-anchor="start" x="49.6" y="-595.6" font-family="Helvetica,sans-Serif" font-size="12.00" fill="#8a93a6">channel type “escalation”, pointing at one policy</text>
</g>
<!-- rule&#45;&gt;channel -->
<g id="edge1" class="edge">
<title>rule&#45;&gt;channel</title>
<path fill="none" stroke="#5a6374" stroke-width="1.4" d="M182.02,-662.72C182.02,-656.46 182.02,-649.65 182.02,-643.01"/>
<polygon fill="#5a6374" stroke="#5a6374" stroke-width="1.4" points="184.99,-643.46 182.02,-634.96 179.04,-643.46 184.99,-643.46"/>
</g>
<!-- page -->
<g id="node3" class="node">
<title>page</title>
<path fill="#1c1710" stroke="#f0a020" stroke-width="1.3" d="M352.04,-549.44C352.04,-549.44 12,-549.44 12,-549.44 6,-549.44 0,-543.44 0,-537.44 0,-537.44 0,-509.52 0,-509.52 0,-503.52 6,-497.52 12,-497.52 12,-497.52 352.04,-497.52 352.04,-497.52 358.04,-497.52 364.04,-503.52 364.04,-509.52 364.04,-509.52 364.04,-537.44 364.04,-537.44 364.04,-543.44 358.04,-549.44 352.04,-549.44"/>
<text xml:space="preserve" text-anchor="start" x="137.28" y="-524.88" font-family="Helvetica,sans-Serif" font-weight="bold" font-size="14.00" fill="#f4f6fb">a page opens</text>
<text xml:space="preserve" text-anchor="start" x="21.6" y="-512.68" font-family="Helvetica,sans-Serif" font-size="12.00" fill="#ffc46b">one incident: re&#45;fires bump its count, nobody is notified twice</text>
</g>
<!-- channel&#45;&gt;page -->
<g id="edge2" class="edge">
<title>channel&#45;&gt;page</title>
<path fill="none" stroke="#5a6374" stroke-width="1.4" d="M182.02,-579.8C182.02,-573.54 182.02,-566.73 182.02,-560.09"/>
<polygon fill="#5a6374" stroke="#5a6374" stroke-width="1.4" points="184.99,-560.54 182.02,-552.04 179.04,-560.54 184.99,-560.54"/>
</g>
<!-- step -->
<g id="node4" class="node">
<title>step</title>
<path fill="#151a24" stroke="#283041" stroke-width="1.3" d="M286,-466.52C286,-466.52 78.03,-466.52 78.03,-466.52 72.03,-466.52 66.03,-460.52 66.03,-454.52 66.03,-454.52 66.03,-426.6 66.03,-426.6 66.03,-420.6 72.03,-414.6 78.03,-414.6 78.03,-414.6 286,-414.6 286,-414.6 292,-414.6 298,-420.6 298,-426.6 298,-426.6 298,-454.52 298,-454.52 298,-460.52 292,-466.52 286,-466.52"/>
<text xml:space="preserve" text-anchor="start" x="145.45" y="-441.96" font-family="Helvetica,sans-Serif" font-weight="bold" font-size="14.00" fill="#f4f6fb">policy step</text>
<text xml:space="preserve" text-anchor="start" x="87.63" y="-429.76" font-family="Helvetica,sans-Serif" font-size="12.00" fill="#8a93a6">level 1, level 2, … each with a delay</text>
</g>
<!-- page&#45;&gt;step -->
<g id="edge3" class="edge">
<title>page&#45;&gt;step</title>
<path fill="none" stroke="#5a6374" stroke-width="1.4" d="M182.02,-496.88C182.02,-490.62 182.02,-483.81 182.02,-477.17"/>
<polygon fill="#5a6374" stroke="#5a6374" stroke-width="1.4" points="184.99,-477.62 182.02,-469.12 179.04,-477.62 184.99,-477.62"/>
</g>
<!-- target -->
<g id="node5" class="node">
<title>target</title>
<path fill="#151a24" stroke="#283041" stroke-width="1.3" d="M312.02,-383.6C312.02,-383.6 52.02,-383.6 52.02,-383.6 46.02,-383.6 40.02,-377.6 40.02,-371.6 40.02,-371.6 40.02,-343.68 40.02,-343.68 40.02,-337.68 46.02,-331.68 52.02,-331.68 52.02,-331.68 312.02,-331.68 312.02,-331.68 318.02,-331.68 324.02,-337.68 324.02,-343.68 324.02,-343.68 324.02,-371.6 324.02,-371.6 324.02,-377.6 318.02,-383.6 312.02,-383.6"/>
<text xml:space="preserve" text-anchor="start" x="162.57" y="-359.04" font-family="Helvetica,sans-Serif" font-weight="bold" font-size="14.00" fill="#f4f6fb">target</text>
<text xml:space="preserve" text-anchor="start" x="61.62" y="-346.84" font-family="Helvetica,sans-Serif" font-size="12.00" fill="#8a93a6">schedule · team · user · notification channel</text>
</g>
<!-- step&#45;&gt;target -->
<g id="edge4" class="edge">
<title>step&#45;&gt;target</title>
<path fill="none" stroke="#5a6374" stroke-width="1.4" d="M182.02,-413.96C182.02,-407.7 182.02,-400.89 182.02,-394.25"/>
<polygon fill="#5a6374" stroke="#5a6374" stroke-width="1.4" points="184.99,-394.7 182.02,-386.2 179.04,-394.7 184.99,-394.7"/>
</g>
<!-- person -->
<g id="node6" class="node">
<title>person</title>
<path fill="#151a24" stroke="#283041" stroke-width="1.3" d="M318.69,-300.68C318.69,-300.68 45.35,-300.68 45.35,-300.68 39.35,-300.68 33.35,-294.68 33.35,-288.68 33.35,-288.68 33.35,-260.76 33.35,-260.76 33.35,-254.76 39.35,-248.76 45.35,-248.76 45.35,-248.76 318.69,-248.76 318.69,-248.76 324.69,-248.76 330.69,-254.76 330.69,-260.76 330.69,-260.76 330.69,-288.68 330.69,-288.68 330.69,-294.68 324.69,-300.68 318.69,-300.68"/>
<text xml:space="preserve" text-anchor="start" x="122.12" y="-276.12" font-family="Helvetica,sans-Serif" font-weight="bold" font-size="14.00" fill="#f4f6fb">the person on call</text>
<text xml:space="preserve" text-anchor="start" x="54.95" y="-263.92" font-family="Helvetica,sans-Serif" font-size="12.00" fill="#8a93a6">resolved when the step runs, overrides included</text>
</g>
<!-- target&#45;&gt;person -->
<g id="edge5" class="edge">
<title>target&#45;&gt;person</title>
<path fill="none" stroke="#5a6374" stroke-width="1.4" d="M182.02,-331.04C182.02,-324.78 182.02,-317.97 182.02,-311.33"/>
<polygon fill="#5a6374" stroke="#5a6374" stroke-width="1.4" points="184.99,-311.78 182.02,-303.28 179.04,-311.78 184.99,-311.78"/>
</g>
<!-- chain -->
<g id="node7" class="node">
<title>chain</title>
<path fill="#151a24" stroke="#283041" stroke-width="1.3" d="M299.34,-217.76C299.34,-217.76 64.7,-217.76 64.7,-217.76 58.7,-217.76 52.7,-211.76 52.7,-205.76 52.7,-205.76 52.7,-177.84 52.7,-177.84 52.7,-171.84 58.7,-165.84 64.7,-165.84 64.7,-165.84 299.34,-165.84 299.34,-165.84 305.34,-165.84 311.34,-171.84 311.34,-177.84 311.34,-177.84 311.34,-205.76 311.34,-205.76 311.34,-211.76 305.34,-217.76 299.34,-217.76"/>
<text xml:space="preserve" text-anchor="start" x="109.29" y="-193.2" font-family="Helvetica,sans-Serif" font-weight="bold" font-size="14.00" fill="#f4f6fb">notification rule chain</text>
<text xml:space="preserve" text-anchor="start" x="74.3" y="-181" font-family="Helvetica,sans-Serif" font-size="12.00" fill="#8a93a6">their own steps, for this page’s urgency</text>
</g>
<!-- person&#45;&gt;chain -->
<g id="edge6" class="edge">
<title>person&#45;&gt;chain</title>
<path fill="none" stroke="#5a6374" stroke-width="1.4" d="M182.02,-248.12C182.02,-241.86 182.02,-235.05 182.02,-228.41"/>
<polygon fill="#5a6374" stroke="#5a6374" stroke-width="1.4" points="184.99,-228.86 182.02,-220.36 179.04,-228.86 184.99,-228.86"/>
</g>
<!-- method -->
<g id="node8" class="node">
<title>method</title>
<path fill="#15121f" stroke="#7c5cff" stroke-width="1.3" d="M310.99,-134.84C310.99,-134.84 53.04,-134.84 53.04,-134.84 47.04,-134.84 41.04,-128.84 41.04,-122.84 41.04,-122.84 41.04,-94.92 41.04,-94.92 41.04,-88.92 47.04,-82.92 53.04,-82.92 53.04,-82.92 310.99,-82.92 310.99,-82.92 316.99,-82.92 322.99,-88.92 322.99,-94.92 322.99,-94.92 322.99,-122.84 322.99,-122.84 322.99,-128.84 316.99,-134.84 310.99,-134.84"/>
<text xml:space="preserve" text-anchor="start" x="129.9" y="-110.28" font-family="Helvetica,sans-Serif" font-weight="bold" font-size="14.00" fill="#f4f6fb">contact method</text>
<text xml:space="preserve" text-anchor="start" x="62.64" y="-98.08" font-family="Helvetica,sans-Serif" font-size="12.00" fill="#b9a7ff">email · Slack · Pushover · Telegram · SMS</text>
</g>
<!-- chain&#45;&gt;method -->
<g id="edge7" class="edge">
<title>chain&#45;&gt;method</title>
<path fill="none" stroke="#5a6374" stroke-width="1.4" d="M182.02,-165.2C182.02,-158.94 182.02,-152.13 182.02,-145.49"/>
<polygon fill="#5a6374" stroke="#5a6374" stroke-width="1.4" points="184.99,-145.94 182.02,-137.44 179.04,-145.94 184.99,-145.94"/>
</g>
<!-- method&#45;&gt;step -->
<g id="edge9" class="edge">
<title>method:e&#45;&gt;step:e</title>
<path fill="none" stroke="#ff5a5f" stroke-width="1.4" stroke-dasharray="5,2" d="M323.99,-108.88C324.52,-108.88 408.18,-419.53 309.48,-439.55"/>
<polygon fill="#ff5a5f" stroke="#ff5a5f" stroke-width="1.4" points="309.29,-436.58 301.11,-440.36 309.86,-442.5 309.29,-436.58"/>
<text xml:space="preserve" text-anchor="start" x="356.75" y="-283.72" font-family="Helvetica,sans-Serif" font-size="10.00" fill="#ff8a8d"> &#160;nobody acknowledged:</text>
<text xml:space="preserve" text-anchor="start" x="356.75" y="-271.72" font-family="Helvetica,sans-Serif" font-size="10.00" fill="#ff8a8d"> &#160;next level after</text>
<text xml:space="preserve" text-anchor="start" x="356.75" y="-259.72" font-family="Helvetica,sans-Serif" font-size="10.00" fill="#ff8a8d"> &#160;the step&#39;s delay</text>
</g>
<!-- ack -->
<g id="node9" class="node">
<title>ack</title>
<path fill="#0c1714" stroke="#22e0a8" stroke-width="1.3" d="M322.37,-51.92C322.37,-51.92 41.67,-51.92 41.67,-51.92 35.67,-51.92 29.67,-45.92 29.67,-39.92 29.67,-39.92 29.67,-12 29.67,-12 29.67,-6 35.67,0 41.67,0 41.67,0 322.37,0 322.37,0 328.37,0 334.37,-6 334.37,-12 334.37,-12 334.37,-39.92 334.37,-39.92 334.37,-45.92 328.37,-51.92 322.37,-51.92"/>
<text xml:space="preserve" text-anchor="start" x="133.78" y="-27.36" font-family="Helvetica,sans-Serif" font-weight="bold" font-size="14.00" fill="#f4f6fb">acknowledged</text>
<text xml:space="preserve" text-anchor="start" x="51.27" y="-15.16" font-family="Helvetica,sans-Serif" font-size="12.00" fill="#7ff0c8">escalation stops, queued deliveries are cancelled</text>
</g>
<!-- method&#45;&gt;ack -->
<g id="edge8" class="edge">
<title>method&#45;&gt;ack</title>
<path fill="none" stroke="#5a6374" stroke-width="1.4" d="M182.02,-82.28C182.02,-76.02 182.02,-69.21 182.02,-62.57"/>
<polygon fill="#5a6374" stroke="#5a6374" stroke-width="1.4" points="184.99,-63.02 182.02,-54.52 179.04,-63.02 184.99,-63.02"/>
</g>
</g>
</svg>
